<svg id="svg25" width="32" height="32" version="1.1" viewBox="0 0 32 32" xmlns="http://www.w3.org/2000/svg">
 <defs id="defs19">
  <mask id="mask-powermask-path-effect1022" maskUnits="userSpaceOnUse">
   <path id="mask-powermask-path-effect1022_box" d="m-1-1h34v34h-34z" fill="#fff"/>
   <path id="path3" d="m5.6137 30.225 24.664-24.664" fill="#f00" stroke="#000" stroke-linecap="square" stroke-linejoin="round" stroke-width="5.1875"/>
  </mask>
  <clipPath id="clipPath1100">
   <g id="g14" display="none">
    <circle id="circle6" cx="12.898" cy="3.9614" r="1.9332" d="M 14.831416,3.9613826 A 1.9331547,1.9331547 0 0 1 12.898261,5.8945373 1.9331547,1.9331547 0 0 1 10.965106,3.9613826 1.9331547,1.9331547 0 0 1 12.898261,2.0282279 1.9331547,1.9331547 0 0 1 14.831416,3.9613826 Z" fill="#f00"/>
    <circle id="circle8" cx="7.6059" cy="13.437" r="3.9931" d="M 11.598928,13.43701 A 3.9930737,3.9930737 0 0 1 7.6058545,17.430084 3.9930737,3.9930737 0 0 1 3.6127808,13.43701 3.9930737,3.9930737 0 0 1 7.6058545,9.4439361 3.9930737,3.9930737 0 0 1 11.598928,13.43701 Z" fill="#f00"/>
    <circle id="circle10" cx="17.842" cy="27.856" r="1.4895" d="m 19.331547,27.856441 a 1.4894798,1.4894798 0 0 1 -1.489479,1.48948 1.4894798,1.4894798 0 0 1 -1.48948,-1.48948 1.4894798,1.4894798 0 0 1 1.48948,-1.489479 1.4894798,1.4894798 0 0 1 1.489479,1.489479 z" fill="#f00"/>
    <circle id="circle12" cx="27.001" cy="21.043" r="3.1691" d="m 30.16989,21.042864 a 3.169106,3.169106 0 0 1 -3.169106,3.169106 3.169106,3.169106 0 0 1 -3.169106,-3.169106 3.169106,3.169106 0 0 1 3.169106,-3.169106 3.169106,3.169106 0 0 1 3.169106,3.169106 z" fill="#f00"/>
   </g>
   <path id="path16" class="powerclip" d="m-5-5h42v42h-42zm19.831 8.9614a1.9332 1.9332 0 0 0-1.9332-1.9332 1.9332 1.9332 0 0 0-1.9332 1.9332 1.9332 1.9332 0 0 0 1.9332 1.9332 1.9332 1.9332 0 0 0 1.9332-1.9332zm-3.2325 9.4756a3.9931 3.9931 0 0 0-3.9931-3.9931 3.9931 3.9931 0 0 0-3.9931 3.9931 3.9931 3.9931 0 0 0 3.9931 3.9931 3.9931 3.9931 0 0 0 3.9931-3.9931zm7.7326 14.419a1.4895 1.4895 0 0 0-1.4895-1.4895 1.4895 1.4895 0 0 0-1.4895 1.4895 1.4895 1.4895 0 0 0 1.4895 1.4895 1.4895 1.4895 0 0 0 1.4895-1.4895zm10.838-6.8136a3.1691 3.1691 0 0 0-3.1691-3.1691 3.1691 3.1691 0 0 0-3.1691 3.1691 3.1691 3.1691 0 0 0 3.1691 3.1691 3.1691 3.1691 0 0 0 3.1691-3.1691z"/>
  </clipPath>
 </defs>
 <path id="path21" d="m32 16a16 16 0 0 1-16 16 16 16 0 0 1-16-16 16 16 0 0 1 16-16 16 16 0 0 1 16 16z" clip-path="url(#clipPath1100)" fill="#fff" mask="url(#mask-powermask-path-effect1022)"/>
 <path id="path23" d="m3.6681 28.332 24.664-24.664" fill="#fff" stroke="#fff" stroke-linecap="square" stroke-linejoin="round" stroke-width="5.1875"/>
</svg>
