<svg width="32" height="32" version="1.1" viewBox="0 0 32 32" xmlns="http://www.w3.org/2000/svg">
 <defs>
  <clipPath id="clipPath467">
   <g display="none">
    <rect x="6.5434" y="4.5714" width="4.6611" height="4.6611" rx="1" ry="1" d="m 7.5434175,4.5714288 h 2.6610645 c 0.554,0 1,0.446 1,1 v 2.6610646 c 0,0.554 -0.446,1 -1,1 H 7.5434175 c -0.554,0 -1,-0.446 -1,-1 V 5.5714288 c 0,-0.554 0.446,-1 1,-1 z" fill="#fff" stroke-width="0" style="paint-order:markers stroke fill"/>
    <rect x="14.782" y="4.5714" width="4.6611" height="4.6611" rx="1" ry="1" d="m 15.782186,4.5714288 h 2.661064 c 0.554,0 1,0.446 1,1 v 2.6610646 c 0,0.554 -0.446,1 -1,1 h -2.661064 c -0.554,0 -1,-0.446 -1,-1 V 5.5714288 c 0,-0.554 0.446,-1 1,-1 z" fill="#fff" stroke-width="0" style="paint-order:markers stroke fill"/>
    <rect x="6.5434" y="10.348" width="12.9" height="3.7647" rx="1" ry=".80769" d="M 7.5434184,10.347757 H 18.44325 c 0.554,0 1,0.360231 1,0.807693 v 2.149321 c 0,0.447462 -0.446,0.807693 -1,0.807693 H 7.5434184 c -0.554,0 -1,-0.360231 -1,-0.807693 V 11.15545 c 0,-0.447462 0.446,-0.807693 1,-0.807693 z" fill="#fff" stroke-width="0" style="paint-order:markers stroke fill"/>
   </g>
   <path class="powerclip" d="m-0.11958-2.4647h26.226v26.226h-26.226zm7.663 7.0361c-0.554 0-1 0.446-1 1v2.6611c0 0.554 0.446 1 1 1h2.6611c0.554 0 1-0.446 1-1v-2.6611c0-0.554-0.446-1-1-1zm8.2388 0c-0.554 0-1 0.446-1 1v2.6611c0 0.554 0.446 1 1 1h2.6611c0.554 0 1-0.446 1-1v-2.6611c0-0.554-0.446-1-1-1zm-8.2388 5.7763c-0.554 0-1 0.36023-1 0.80769v2.1493c0 0.44746 0.446 0.80769 1 0.80769h10.9c0.554 0 1-0.36023 1-0.80769v-2.1493c0-0.44746-0.446-0.80769-1-0.80769z" fill="#fff"/>
  </clipPath>
 </defs>
 <path transform="matrix(1.8652 0 0 1.8652 -8.2352 -3.861)" x="4.8804231" y="2.5352848" width="16.225822" height="16.225822" rx="1.4592412" ry="1.4592412" d="m6.3397 2.5353h13.307c0.80842 0 1.4592 0.65082 1.4592 1.4592v13.307c0 0.80842-0.65082 1.4592-1.4592 1.4592h-13.307c-0.80842 0-1.4592-0.65082-1.4592-1.4592v-13.307c0-0.80842 0.65082-1.4592 1.4592-1.4592z" clip-path="url(#clipPath467)" fill="#fff" stroke-width="0" style="paint-order:markers stroke fill"/>
</svg>
