<svg id="svg5" width="16" height="16" version="1.1" viewBox="0 0 16 16" xmlns="http://www.w3.org/2000/svg">
 <defs id="defs2">
  <clipPath id="clipPath1514">
   <g id="g1520" transform="translate(-.36336 .16516)" display="none">
    <rect id="rect1516" x="6.9099" y="5.2583" width="2.9069" height="8.9519" rx="2" ry="1.6" d="m 8.3633595,5.2582836 c 0.8052056,0 1.4534397,0.7136 1.4534397,1.6 v 5.7518694 c 0,0.8864 -0.6482341,1.6 -1.4534397,1.6 -0.8052056,0 -1.4534398,-0.7136 -1.4534398,-1.6 V 6.8582836 c 0,-0.8864 0.6482342,-1.6 1.4534398,-1.6 z"/>
    <circle id="circle1518" cx="8.3634" cy="2.913" r="1.4534" d="M 9.8167992,2.9129601 A 1.4534397,1.4534397 0 0 1 8.3633595,4.3663998 1.4534397,1.4534397 0 0 1 6.9099197,2.9129601 1.4534397,1.4534397 0 0 1 8.3633595,1.4595203 1.4534397,1.4534397 0 0 1 9.8167992,2.9129601 Z"/>
   </g>
   <path id="lpe_path-effect1522" class="powerclip" d="m-5-5h26v26h-26zm13.363 10.258c-0.80521 0-1.4534 0.7136-1.4534 1.6v5.7519c0 0.8864 0.64823 1.6 1.4534 1.6s1.4534-0.7136 1.4534-1.6v-5.7519c0-0.8864-0.64823-1.6-1.4534-1.6zm1.4534-2.3453a1.4534 1.4534 0 0 0-1.4534-1.4534 1.4534 1.4534 0 0 0-1.4534 1.4534 1.4534 1.4534 0 0 0 1.4534 1.4534 1.4534 1.4534 0 0 0 1.4534-1.4534z"/>
  </clipPath>
 </defs>
 <g id="layer1">
  <path id="path286" d="m16 8a8 8 0 0 1-8 8 8 8 0 0 1-8-8 8 8 0 0 1 8-8 8 8 0 0 1 8 8z" clip-path="url(#clipPath1514)" fill="#fff" stroke-linecap="round" stroke-linejoin="round" stroke-width="1.2"/>
 </g>
</svg>
