<?xml version="1.0" encoding="UTF-8" standalone="no"?>
<!-- Created with Inkscape (http://www.inkscape.org/) -->

<svg
   width="32"
   height="32"
   viewBox="0 0 32 32"
   version="1.1"
   id="svg5"
   xml:space="preserve"
   inkscape:version="1.2.1 (9c6d41e410, 2022-07-14)"
   sodipodi:docname="modID.svg"
   xmlns:inkscape="http://www.inkscape.org/namespaces/inkscape"
   xmlns:sodipodi="http://sodipodi.sourceforge.net/DTD/sodipodi-0.dtd"
   xmlns:xlink="http://www.w3.org/1999/xlink"
   xmlns="http://www.w3.org/2000/svg"
   xmlns:svg="http://www.w3.org/2000/svg"><sodipodi:namedview
     id="namedview7"
     pagecolor="#ffffff"
     bordercolor="#000000"
     borderopacity="0.25"
     inkscape:showpageshadow="2"
     inkscape:pageopacity="0.0"
     inkscape:pagecheckerboard="0"
     inkscape:deskcolor="#d1d1d1"
     inkscape:document-units="px"
     showgrid="false"
     inkscape:zoom="3.7841261"
     inkscape:cx="26.822573"
     inkscape:cy="27.218966"
     inkscape:window-width="1560"
     inkscape:window-height="874"
     inkscape:window-x="40"
     inkscape:window-y="26"
     inkscape:window-maximized="1"
     inkscape:current-layer="layer1" /><defs
     id="defs2"><linearGradient
       inkscape:collect="always"
       id="linearGradient8083"><stop
         style="stop-color:#7b7b34;stop-opacity:1;"
         offset="0"
         id="stop8079" /><stop
         style="stop-color:#11110d;stop-opacity:1;"
         offset="1"
         id="stop8081" /></linearGradient><inkscape:path-effect
       effect="powerclip"
       id="path-effect5086"
       is_visible="true"
       lpeversion="1"
       inverse="true"
       flatten="false"
       hide_clip="false"
       message="Use fill-rule evenodd on &lt;b&gt;fill and stroke&lt;/b&gt; dialog if no flatten result after convert clip to paths." /><inkscape:path-effect
       effect="powerstroke"
       id="path-effect4802"
       is_visible="true"
       lpeversion="1"
       offset_points="0,18.867925"
       not_jump="false"
       sort_points="true"
       interpolator_type="CubicBezierJohan"
       interpolator_beta="0.2"
       start_linecap_type="zerowidth"
       linejoin_type="extrp_arc"
       miter_limit="4"
       scale_width="1"
       end_linecap_type="zerowidth" /><inkscape:path-effect
       effect="spiro"
       id="path-effect4783"
       is_visible="true"
       lpeversion="1" /><inkscape:path-effect
       effect="spiro"
       id="path-effect4689"
       is_visible="true"
       lpeversion="1" /><inkscape:path-effect
       effect="spiro"
       id="path-effect4685"
       is_visible="true"
       lpeversion="1" /><inkscape:path-effect
       effect="spiro"
       id="path-effect4580"
       is_visible="true"
       lpeversion="1" /><linearGradient
       inkscape:collect="always"
       xlink:href="#linearGradient8083"
       id="linearGradient871"
       x1="4.4448018"
       y1="27.06695"
       x2="26.639803"
       y2="4.0503302"
       gradientUnits="userSpaceOnUse"
       gradientTransform="matrix(0.87199819,0,0,0.87199819,2.048029,2.048029)" /><filter
       style="color-interpolation-filters:sRGB;"
       inkscape:label="Drop Shadow"
       id="filter1372"
       x="-0.28091773"
       y="-0.28091773"
       width="1.5618355"
       height="1.5618355"><feFlood
         flood-opacity="1"
         flood-color="rgb(0,0,0)"
         result="flood"
         id="feFlood1362" /><feComposite
         in="flood"
         in2="SourceGraphic"
         operator="in"
         result="composite1"
         id="feComposite1364" /><feGaussianBlur
         in="composite1"
         stdDeviation="3.01613"
         result="blur"
         id="feGaussianBlur1366" /><feOffset
         dx="0"
         dy="0"
         result="offset"
         id="feOffset1368" /><feComposite
         in="SourceGraphic"
         in2="offset"
         operator="over"
         result="composite2"
         id="feComposite1370" /></filter><linearGradient
       inkscape:collect="always"
       xlink:href="#linearGradient8083"
       id="linearGradient1403"
       x1="-5.7906833"
       y1="16.000002"
       x2="37.790684"
       y2="16.000002"
       gradientUnits="userSpaceOnUse" /><inkscape:path-effect
       effect="spiro"
       id="path-effect4580-6"
       is_visible="true"
       lpeversion="1" /><inkscape:path-effect
       effect="spiro"
       id="path-effect4580-62"
       is_visible="true"
       lpeversion="1" /><inkscape:path-effect
       effect="spiro"
       id="path-effect4580-6-6"
       is_visible="true"
       lpeversion="1" /><inkscape:path-effect
       effect="spiro"
       id="path-effect4685-1"
       is_visible="true"
       lpeversion="1" /><inkscape:path-effect
       effect="spiro"
       id="path-effect4689-8"
       is_visible="true"
       lpeversion="1" /><clipPath
       clipPathUnits="userSpaceOnUse"
       id="clipPath5076"><g
         id="g5084"
         style="display:none"><rect
           style="fill:#000000;stroke:none;stroke-width:0.858579;stroke-linecap:round;stroke-linejoin:round;stroke-dasharray:none;paint-order:stroke fill markers"
           id="rect5078"
           width="5.1050143"
           height="5.1050143"
           x="9.5123987"
           y="8.9428806"
           rx="0.85857862"
           ry="0.85857862"
           d="m 10.370977,8.9428806 h 3.387857 c 0.475653,0 0.858579,0.3829261 0.858579,0.8585787 v 3.3878567 c 0,0.475653 -0.382926,0.858579 -0.858579,0.858579 h -3.387857 c -0.4756522,0 -0.8585783,-0.382926 -0.8585783,-0.858579 V 9.8014593 c 0,-0.4756526 0.3829261,-0.8585787 0.8585783,-0.8585787 z" /><rect
           style="fill:#000000;stroke:none;stroke-width:1.15519;stroke-linecap:round;stroke-linejoin:round;stroke-dasharray:none;paint-order:stroke fill markers"
           id="rect5080"
           width="9.2414799"
           height="5.1050143"
           x="9.3722525"
           y="16.684778"
           rx="1"
           ry="1"
           d="m 10.372252,16.684778 h 7.24148 c 0.554,0 1,0.446 1,1 v 3.105015 c 0,0.554 -0.446,1 -1,1 h -7.24148 c -0.5539995,0 -0.9999995,-0.446 -0.9999995,-1 v -3.105015 c 0,-0.554 0.446,-1 0.9999995,-1 z" /><rect
           style="fill:#000000;stroke:none;stroke-width:0.858579;stroke-linecap:round;stroke-linejoin:round;stroke-dasharray:none;paint-order:stroke fill markers"
           id="rect5082"
           width="5.1050138"
           height="5.1050138"
           x="17.498358"
           y="8.9428806"
           rx="0.8585785"
           ry="0.8585785"
           d="m 18.356936,8.9428806 h 3.387857 c 0.475653,0 0.858579,0.382926 0.858579,0.8585785 v 3.3878569 c 0,0.475652 -0.382926,0.858578 -0.858579,0.858578 h -3.387857 c -0.475652,0 -0.858578,-0.382926 -0.858578,-0.858578 V 9.8014591 c 0,-0.4756525 0.382926,-0.8585785 0.858578,-0.8585785 z" /></g><path
         id="lpe_path-effect5086"
         class="powerclip"
         d="M 2.3948214,1.9984287 H 29.677793 V 30.114151 H 2.3948214 Z m 7.9761556,6.9444519 c -0.4756522,0 -0.8585783,0.3829261 -0.8585783,0.8585787 v 3.3878567 c 0,0.475653 0.3829261,0.858579 0.8585783,0.858579 h 3.387857 c 0.475653,0 0.858579,-0.382926 0.858579,-0.858579 V 9.8014593 c 0,-0.4756526 -0.382926,-0.8585787 -0.858579,-0.8585787 z m 0.0013,7.7418974 c -0.5539995,0 -0.9999995,0.446 -0.9999995,1 v 3.105015 c 0,0.554 0.446,1 0.9999995,1 h 7.24148 c 0.554,0 1,-0.446 1,-1 v -3.105015 c 0,-0.554 -0.446,-1 -1,-1 z m 7.984684,-7.7418974 c -0.475652,0 -0.858578,0.382926 -0.858578,0.8585785 v 3.3878569 c 0,0.475652 0.382926,0.858578 0.858578,0.858578 h 3.387857 c 0.475653,0 0.858579,-0.382926 0.858579,-0.858578 V 9.8014591 c 0,-0.4756525 -0.382926,-0.8585785 -0.858579,-0.8585785 z" /></clipPath></defs><g
     inkscape:label="Vrstva 1"
     inkscape:groupmode="layer"
     id="layer1"><circle
       style="stroke-opacity:1;stroke-dasharray:none;stroke-linejoin:round;stroke-linecap:round;stroke-width:1.2;stroke:url(#linearGradient1403);fill-opacity:1;fill:url(#linearGradient871);"
       id="path234"
       cx="16"
       cy="16"
       r="13.951971" /><g
       id="g4808"
       transform="matrix(0.79928393,0,0,0.79928393,10.950711,12.574762)"><circle
         style="opacity:1;fill:none;stroke:#fcffc1;stroke-width:1;stroke-linecap:round;stroke-linejoin:round;stroke-dasharray:none;paint-order:stroke fill markers;stroke-opacity:1"
         id="path4798"
         cx="11.561454"
         cy="10.66957"
         r="4.9709616" /><path
         style="opacity:1;fill:#fcffc1;stroke:#fcffc1;stroke-width:0.909644;stroke-linecap:round;stroke-linejoin:round;stroke-dasharray:none;paint-order:stroke fill markers;stroke-opacity:1;fill-opacity:1"
         d="m 10.26338,8.2957769 v 4.7475861 l 3.793379,-2.232855 z"
         id="path4804"
         sodipodi:nodetypes="cccc" /></g><path
       style="opacity:1;fill:#fcffc1;stroke:#fcffc1;stroke-width:0.99964477;stroke-linecap:round;stroke-linejoin:round;stroke-dasharray:none;paint-order:stroke fill markers;stroke-opacity:1;stroke-miterlimit:2.3;fill-opacity:1"
       d="M 7.8948214,7.4984287 H 24.177793 v 8.3614253 c -5.473029,-2.447333 -11.623201,1.226374 -9.719402,8.754297 H 7.8948214 Z"
       id="path4927"
       sodipodi:nodetypes="cccccc"
       clip-path="url(#clipPath5076)"
       inkscape:path-effect="#path-effect5086"
       inkscape:original-d="M 7.8948214,7.4984287 H 24.177793 v 8.3614253 c -5.473029,-2.447333 -11.623201,1.226374 -9.719402,8.754297 H 7.8948214 Z"
       transform="matrix(0.79928393,0,0,0.79928393,3.399588,3.46589)" /></g><g
     inkscape:groupmode="layer"
     id="layer3"
     inkscape:label="Vrstva 2" /></svg>
