<svg id="svg5" width="32" height="32" version="1.1" viewBox="0 0 32 32" xml:space="preserve" xmlns="http://www.w3.org/2000/svg" xmlns:xlink="http://www.w3.org/1999/xlink"><defs id="defs2"><linearGradient id="linearGradient8083"><stop id="stop8079" stop-color="#7b7b34" offset="0"/><stop id="stop8081" stop-color="#11110d" offset="1"/></linearGradient><linearGradient id="linearGradient871" x1="4.4448" x2="26.64" y1="27.067" y2="4.0503" gradientTransform="matrix(.872 0 0 .872 2.048 2.048)" gradientUnits="userSpaceOnUse" xlink:href="#linearGradient8083"/><linearGradient id="linearGradient1403" x1="-5.7907" x2="37.791" y1="16" y2="16" gradientUnits="userSpaceOnUse" xlink:href="#linearGradient8083"/><clipPath id="clipPath414"><g id="g422" transform="matrix(1.2511 0 0 1.2511 -4.2533 -4.3362)" display="none"><rect id="rect416" x="11.003" y="10.614" width="4.0804" height="4.0804" rx=".68625" ry=".68625" d="m 11.688943,10.613791 h 2.70786 c 0.380182,0 0.686248,0.306067 0.686248,0.686249 v 2.707859 c 0,0.380182 -0.306066,0.686249 -0.686248,0.686249 h -2.70786 c -0.380181,0 -0.686248,-0.306067 -0.686248,-0.686249 V 11.30004 c 0,-0.380182 0.306067,-0.686249 0.686248,-0.686249 z" style="paint-order:stroke fill markers"/><rect id="rect418" x="10.891" y="16.802" width="7.3866" height="2.819" rx=".79928" ry=".55221" d="m 11.689962,16.801765 h 5.787999 c 0.442803,0 0.799284,0.246286 0.799284,0.552211 v 1.714621 c 0,0.305925 -0.356481,0.552211 -0.799284,0.552211 h -5.787999 c -0.442803,0 -0.799284,-0.246286 -0.799284,-0.552211 v -1.714621 c 0,-0.305925 0.356481,-0.552211 0.799284,-0.552211 z" style="paint-order:stroke fill markers"/><rect id="rect420" x="17.386" y="10.614" width="4.0804" height="4.0804" rx=".68625" ry=".68625" d="m 18.071992,10.613791 h 2.70786 c 0.380181,0 0.686248,0.306067 0.686248,0.686248 v 2.70786 c 0,0.380182 -0.306067,0.686248 -0.686248,0.686248 h -2.70786 c -0.380181,0 -0.686248,-0.306066 -0.686248,-0.686248 v -2.70786 c 0,-0.380181 0.306067,-0.686248 0.686248,-0.686248 z" style="paint-order:stroke fill markers"/></g><path id="lpe_path-effect424" class="powerclip" d="m2.395 1.9986h27.283v28.115h-27.283zm9.2939 8.6152c-0.38018 0-0.68625 0.30607-0.68625 0.68625v2.7079c0 0.38018 0.30607 0.68625 0.68625 0.68625h2.7079c0.38018 0 0.68625-0.30607 0.68625-0.68625v-2.7079c0-0.38018-0.30607-0.68625-0.68625-0.68625zm1e-3 6.188c-0.4428 0-0.79928 0.24629-0.79928 0.55221v1.7146c0 0.30592 0.35648 0.55221 0.79928 0.55221h5.788c0.4428 0 0.79928-0.24629 0.79928-0.55221v-1.7146c0-0.30592-0.35648-0.55221-0.79928-0.55221zm6.382-6.188c-0.38018 0-0.68625 0.30607-0.68625 0.68625v2.7079c0 0.38018 0.30607 0.68625 0.68625 0.68625h2.7079c0.38018 0 0.68625-0.30607 0.68625-0.68625v-2.7079c0-0.38018-0.30607-0.68625-0.68625-0.68625z"/></clipPath></defs><g id="layer1" stroke-linecap="round" stroke-linejoin="round"><circle id="path234" cx="16" cy="16" r="13.952" fill="url(#linearGradient871)" stroke="url(#linearGradient1403)" stroke-width="1.2"/><g id="g4808" transform="matrix(.79928 0 0 .79928 10.951 12.575)" stroke="#fcffc1"><circle id="path4798" cx="11.561" cy="10.67" r="4.971" fill="none" style="paint-order:stroke fill markers"/><path id="path4804" d="m10.263 8.2958v4.7476l3.7934-2.2329z" fill="#fcffc1" stroke-width=".90964" style="paint-order:stroke fill markers"/></g><path id="path4927" transform="matrix(.79928 0 0 .79928 3.3996 3.4659)" d="m7.8948 7.4984h16.283v8.3614c-5.473-2.4473-11.623 1.2264-9.7194 8.7543h-6.5636z" clip-path="url(#clipPath414)" fill="#fcffc1" stroke="#fcffc1" stroke-miterlimit="2.3" stroke-width=".99964" style="paint-order:stroke fill markers"/></g></svg>
