<svg id="svg5" width="32" height="32" version="1.1" viewBox="0 0 32 32" xmlns="http://www.w3.org/2000/svg">
 <g id="layer1" fill="#fff">
  <path id="path236" d="m24.479 29.569a16 16 0 0 1-19.492-1.9628 16 16 0 0 1-2.9802-19.363l13.994 7.757z" style="paint-order:stroke fill markers"/>
  <path id="path236-5" d="m24.479 29.569a16 16 0 0 1-19.492-1.9628 16 16 0 0 1-2.9802-19.363 16 16 0 0 1 18-7.7334 16 16 0 0 1 11.994 15.49h-16z" style="paint-order:stroke fill markers"/>
  <path id="path236-3" d="m31.651 19.71a9.3966 9.3966 0 0 1-4.4172 7.9688l-4.9794-7.9688z" style="paint-order:stroke fill markers"/>
 </g>
</svg>
