<?xml version="1.0" encoding="UTF-8" standalone="no"?>
<!-- Created with Inkscape (http://www.inkscape.org/) -->

<svg
   width="32mm"
   height="32mm"
   viewBox="0 0 32 32"
   version="1.1"
   id="svg2762"
   inkscape:version="1.2.1 (9c6d41e410, 2022-07-14)"
   sodipodi:docname="preview.svg"
   xmlns:inkscape="http://www.inkscape.org/namespaces/inkscape"
   xmlns:sodipodi="http://sodipodi.sourceforge.net/DTD/sodipodi-0.dtd"
   xmlns:xlink="http://www.w3.org/1999/xlink"
   xmlns="http://www.w3.org/2000/svg"
   xmlns:svg="http://www.w3.org/2000/svg">
  <sodipodi:namedview
     id="namedview2764"
     pagecolor="#ffffff"
     bordercolor="#000000"
     borderopacity="0.25"
     inkscape:showpageshadow="2"
     inkscape:pageopacity="0.0"
     inkscape:pagecheckerboard="0"
     inkscape:deskcolor="#d1d1d1"
     inkscape:document-units="mm"
     showgrid="false"
     inkscape:zoom="8"
     inkscape:cx="103.125"
     inkscape:cy="55"
     inkscape:window-width="1560"
     inkscape:window-height="874"
     inkscape:window-x="40"
     inkscape:window-y="26"
     inkscape:window-maximized="1"
     inkscape:current-layer="layer1" />
  <defs
     id="defs2759">
    <inkscape:path-effect
       effect="powerclip"
       id="path-effect7589"
       is_visible="true"
       lpeversion="1"
       inverse="true"
       flatten="false"
       hide_clip="false"
       message="Use fill-rule evenodd on &lt;b&gt;fill and stroke&lt;/b&gt; dialog if no flatten result after convert clip to paths." />
    <inkscape:path-effect
       effect="powerclip"
       id="path-effect7482"
       is_visible="true"
       lpeversion="1"
       inverse="true"
       flatten="false"
       hide_clip="false"
       message="Use fill-rule evenodd on &lt;b&gt;fill and stroke&lt;/b&gt; dialog if no flatten result after convert clip to paths." />
    <inkscape:path-effect
       effect="powerclip"
       id="path-effect7470"
       is_visible="true"
       lpeversion="1"
       inverse="true"
       flatten="false"
       hide_clip="false"
       message="Use fill-rule evenodd on &lt;b&gt;fill and stroke&lt;/b&gt; dialog if no flatten result after convert clip to paths." />
    <linearGradient
       inkscape:collect="always"
       id="linearGradient3451">
      <stop
         style="stop-color:#54b9c4;stop-opacity:1;"
         offset="0"
         id="stop3447" />
      <stop
         style="stop-color:#2439d0;stop-opacity:1;"
         offset="1"
         id="stop3449" />
    </linearGradient>
    <inkscape:path-effect
       effect="powerclip"
       id="path-effect3397"
       is_visible="true"
       lpeversion="1"
       inverse="true"
       flatten="false"
       hide_clip="false"
       message="Use fill-rule evenodd on &lt;b&gt;fill and stroke&lt;/b&gt; dialog if no flatten result after convert clip to paths." />
    <inkscape:path-effect
       effect="powerclip"
       id="path-effect3385"
       is_visible="true"
       lpeversion="1"
       inverse="true"
       flatten="false"
       hide_clip="false"
       message="Use fill-rule evenodd on &lt;b&gt;fill and stroke&lt;/b&gt; dialog if no flatten result after convert clip to paths." />
    <linearGradient
       inkscape:collect="always"
       xlink:href="#linearGradient3451"
       id="linearGradient7276"
       gradientUnits="userSpaceOnUse"
       x1="0"
       y1="24.580278"
       x2="31.999998"
       y2="7.4197216" />
    <linearGradient
       inkscape:collect="always"
       xlink:href="#linearGradient3451"
       id="linearGradient7278"
       gradientUnits="userSpaceOnUse"
       x1="0"
       y1="24.580278"
       x2="31.999998"
       y2="7.4197216" />
    <linearGradient
       inkscape:collect="always"
       xlink:href="#linearGradient3451"
       id="linearGradient7280"
       gradientUnits="userSpaceOnUse"
       x1="0"
       y1="24.580278"
       x2="31.999998"
       y2="7.4197216"
       gradientTransform="translate(10.289878,-10.445825)" />
    <clipPath
       clipPathUnits="userSpaceOnUse"
       id="clipPath7466">
      <circle
         style="display:none;fill:#ffffff;stroke:none;stroke-width:0.78;stroke-linecap:square;stroke-linejoin:round;paint-order:stroke markers fill"
         id="circle7468"
         cx="16"
         cy="16"
         r="5.747395"
         d="M 21.747395,16 A 5.747395,5.747395 0 0 1 16,21.747395 5.747395,5.747395 0 0 1 10.252605,16 5.747395,5.747395 0 0 1 16,10.252605 5.747395,5.747395 0 0 1 21.747395,16 Z" />
      <path
         id="lpe_path-effect7470"
         style="fill:#ffffff;stroke:none;stroke-width:0.78;stroke-linecap:square;stroke-linejoin:round;paint-order:stroke markers fill"
         class="powerclip"
         d="M -5,2.4197214 H 36.999999 V 21 H -5 Z M 21.747395,16 A 5.747395,5.747395 0 0 0 16,10.252605 5.747395,5.747395 0 0 0 10.252605,16 5.747395,5.747395 0 0 0 16,21.747395 5.747395,5.747395 0 0 0 21.747395,16 Z" />
    </clipPath>
    <clipPath
       clipPathUnits="userSpaceOnUse"
       id="clipPath7478">
      <circle
         style="display:none;fill:#ffffff;stroke:none;stroke-width:0.78;stroke-linecap:square;stroke-linejoin:round;paint-order:stroke markers fill"
         id="circle7480"
         cx="16"
         cy="15.936227"
         r="5.747395"
         d="M 21.747395,15.936227 A 5.747395,5.747395 0 0 1 16,21.683622 5.747395,5.747395 0 0 1 10.252605,15.936227 5.747395,5.747395 0 0 1 16,10.188832 a 5.747395,5.747395 0 0 1 5.747395,5.747395 z" />
      <path
         id="lpe_path-effect7482"
         style="fill:#ffffff;stroke:none;stroke-width:0.78;stroke-linecap:square;stroke-linejoin:round;paint-order:stroke markers fill"
         class="powerclip"
         d="M -4.9999999,10.936226 H 37 V 29.516505 H -4.9999999 Z M 21.747395,15.936227 A 5.747395,5.747395 0 0 0 16,10.188832 5.747395,5.747395 0 0 0 10.252605,15.936227 5.747395,5.747395 0 0 0 16,21.683622 5.747395,5.747395 0 0 0 21.747395,15.936227 Z" />
    </clipPath>
    <clipPath
       clipPathUnits="userSpaceOnUse"
       id="clipPath7585">
      <ellipse
         style="display:none;fill:#ffffff;stroke:none;stroke-width:0.78;stroke-linecap:square;stroke-linejoin:round;paint-order:stroke markers fill"
         id="ellipse7587"
         cx="28.208185"
         cy="3.0752876"
         rx="1.9183111"
         ry="1.7727711"
         d="M 30.126496,3.0752876 A 1.9183111,1.7727711 0 0 1 28.208185,4.8480587 1.9183111,1.7727711 0 0 1 26.289874,3.0752876 1.9183111,1.7727711 0 0 1 28.208185,1.3025165 1.9183111,1.7727711 0 0 1 30.126496,3.0752876 Z" />
      <path
         id="lpe_path-effect7589"
         style="fill:#ffffff;stroke:none;stroke-width:0.78;stroke-linecap:square;stroke-linejoin:round;paint-order:stroke markers fill"
         class="powerclip"
         d="M 18.155423,-2.5802786 H 34.424331 V 13.688629 H 18.155423 Z m 11.971073,5.6555662 a 1.9183111,1.7727711 0 0 0 -1.918311,-1.7727711 1.9183111,1.7727711 0 0 0 -1.918311,1.7727711 1.9183111,1.7727711 0 0 0 1.918311,1.7727711 1.9183111,1.7727711 0 0 0 1.918311,-1.7727711 z" />
    </clipPath>
  </defs>
  <g
     inkscape:label="Vrstva 1"
     inkscape:groupmode="layer"
     id="layer1">
    <rect
       style="fill:#00ffff;stroke:#00ffff;stroke-width:0.01;stroke-linecap:square;stroke-linejoin:round;paint-order:stroke markers fill;stroke-dasharray:none"
       id="rect7677"
       width="10.252605"
       height="1e-06"
       x="0"
       y="16"
       rx="0.14687501"
       ry="1e-06" />
    <rect
       style="fill:#00ffff;stroke:#00ffff;stroke-width:0.01;stroke-linecap:square;stroke-linejoin:round;stroke-dasharray:none;paint-order:stroke markers fill"
       id="rect7677-7"
       width="10.252605"
       height="1e-06"
       x="21.75371"
       y="16.004999"
       rx="0.14687501"
       ry="1e-06" />
    <path
       style="fill:url(#linearGradient7276);fill-opacity:1;stroke:none;stroke-width:0.78;stroke-linecap:square;stroke-linejoin:round;paint-order:stroke markers fill"
       d="M 0,16 C 0,16 5.6901259,7.4197214 16,7.4197214 26.309874,7.4197214 31.999999,16 31.999999,16"
       id="path2946"
       sodipodi:nodetypes="csc"
       clip-path="url(#clipPath7466)"
       inkscape:path-effect="#path-effect7470"
       inkscape:original-d="M 0,16 C 0,16 5.6901259,7.4197214 16,7.4197214 26.309874,7.4197214 31.999999,16 31.999999,16" />
    <path
       style="fill:url(#linearGradient7278);fill-opacity:1;stroke:none;stroke-width:0.78;stroke-linecap:square;stroke-linejoin:round;paint-order:stroke markers fill"
       d="M 7.5e-8,15.936226 C 7.5e-8,15.936226 5.690126,24.516505 16.000001,24.516505 26.309875,24.516505 32,15.936226 32,15.936226"
       id="path2946-6"
       sodipodi:nodetypes="csc"
       clip-path="url(#clipPath7478)"
       transform="translate(-7.5e-8,0.063774)"
       inkscape:path-effect="#path-effect7482"
       inkscape:original-d="M 7.5e-8,15.936226 C 7.5e-8,15.936226 5.690126,24.516505 16.000001,24.516505 26.309875,24.516505 32,15.936226 32,15.936226" />
    <path
       style="fill:url(#linearGradient7280);fill-opacity:1;stroke:none;stroke-width:0.78;stroke-linecap:square;stroke-linejoin:round;paint-order:stroke markers fill"
       id="path3389"
       clip-path="url(#clipPath7585)"
       inkscape:path-effect="#path-effect7589"
       sodipodi:type="arc"
       sodipodi:cx="26.289877"
       sodipodi:cy="5.5541754"
       sodipodi:rx="3.134454"
       sodipodi:ry="3.134454"
       d="m 29.424331,5.5541754 a 3.134454,3.134454 0 0 1 -3.134454,3.134454 3.134454,3.134454 0 0 1 -3.134454,-3.134454 3.134454,3.134454 0 0 1 3.134454,-3.134454 3.134454,3.134454 0 0 1 3.134454,3.134454 z"
       transform="translate(-10.289877,10.445825)" />
    <ellipse
       style="display:none;fill:#ffffff;stroke:none;stroke-width:1.09047;stroke-linecap:square;stroke-linejoin:round;paint-order:stroke markers fill"
       id="ellipse3395"
       cx="18.010197"
       cy="13.595023"
       rx="1.5717579"
       ry="1.5496247" />
  </g>
</svg>
