<svg width="16mm" height="16mm" version="1.1" viewBox="0 0 16 16" xmlns="http://www.w3.org/2000/svg">
 <path d="m11.662 13.355c-0.50158 0.34994-3.0349-1.2415-3.6554-1.2407-0.62049 6.79e-4 -3.1501 1.5976-3.6525 1.2488-0.50242-0.34884 0.29461-3.1487 0.10219-3.7138-0.19242-0.56512-2.5595-2.3763-2.3684-2.9418 0.19107-0.56554 3.2171-0.70459 3.7186-1.0545 0.50158-0.34994 1.5682-3.0662 2.1887-3.0669 0.62049-6.785e-4 1.6937 2.7133 2.196 3.0621 0.50239 0.34879 3.5287 0.48127 3.7211 1.0464 0.19242 0.56512-2.1703 2.3815-2.3614 2.947-0.19107 0.56554 0.61262 3.3637 0.11105 3.7136z" fill="none" stroke="#fff" stroke-linecap="round" stroke-linejoin="round" stroke-miterlimit="2" stroke-width="1.025"/>
 <path d="m7.9952 2.5861 0.011409 9.5282-3.6525 1.2488 0.10219-3.7138-2.3684-2.9418 3.7186-1.0545 2.1887-3.0669" fill="#fff"/>
</svg>
