<?xml version="1.0" encoding="UTF-8" standalone="no"?>
<svg
   width="16mm"
   height="16mm"
   version="1.1"
   viewBox="0 0 16 16"
   id="svg4"
   sodipodi:docname="starUnfilled.svg"
   inkscape:version="1.2.2 (b0a8486541, 2022-12-01)"
   xmlns:inkscape="http://www.inkscape.org/namespaces/inkscape"
   xmlns:sodipodi="http://sodipodi.sourceforge.net/DTD/sodipodi-0.dtd"
   xmlns="http://www.w3.org/2000/svg"
   xmlns:svg="http://www.w3.org/2000/svg">
  <defs
     id="defs8" />
  <sodipodi:namedview
     id="namedview6"
     pagecolor="#000000"
     bordercolor="#000000"
     borderopacity="0.25"
     inkscape:showpageshadow="2"
     inkscape:pageopacity="0"
     inkscape:pagecheckerboard="0"
     inkscape:deskcolor="#d1d1d1"
     inkscape:document-units="mm"
     showgrid="false"
     inkscape:zoom="11.807031"
     inkscape:cx="9.8246543"
     inkscape:cy="30.23622"
     inkscape:window-width="1560"
     inkscape:window-height="874"
     inkscape:window-x="40"
     inkscape:window-y="26"
     inkscape:window-maximized="1"
     inkscape:current-layer="svg4" />
  <path
     d="m11.662 13.355c-0.50158 0.34994-3.0349-1.2415-3.6554-1.2407-0.62049 6.79e-4 -3.1501 1.5976-3.6525 1.2488-0.50242-0.34884 0.29461-3.1487 0.10219-3.7138-0.19242-0.56512-2.5595-2.3763-2.3684-2.9418 0.19107-0.56554 3.2171-0.70459 3.7186-1.0545 0.50158-0.34994 1.5682-3.0662 2.1887-3.0669 0.62049-6.785e-4 1.6937 2.7133 2.196 3.0621 0.50239 0.34879 3.5287 0.48127 3.7211 1.0464 0.19242 0.56512-2.1703 2.3815-2.3614 2.947-0.19107 0.56554 0.61262 3.3637 0.11105 3.7136z"
     fill="none"
     stroke="#fff"
     stroke-linecap="round"
     stroke-linejoin="round"
     stroke-miterlimit="2"
     stroke-width="1.9246"
     id="path2"
     style="stroke-width:1.025;stroke-dasharray:none" />
</svg>
