<?xml version="1.0" encoding="UTF-8" standalone="no"?>
<!-- Created with Inkscape (http://www.inkscape.org/) -->

<svg
   width="64mm"
   height="64mm"
   viewBox="0 0 64 64"
   version="1.1"
   id="svg2306"
   inkscape:version="1.2.1 (9c6d41e410, 2022-07-14)"
   sodipodi:docname="send.svg"
   xmlns:inkscape="http://www.inkscape.org/namespaces/inkscape"
   xmlns:sodipodi="http://sodipodi.sourceforge.net/DTD/sodipodi-0.dtd"
   xmlns="http://www.w3.org/2000/svg"
   xmlns:svg="http://www.w3.org/2000/svg">
  <sodipodi:namedview
     id="namedview2308"
     pagecolor="#ce2121"
     bordercolor="#000000"
     borderopacity="0.25"
     inkscape:showpageshadow="2"
     inkscape:pageopacity="0"
     inkscape:pagecheckerboard="0"
     inkscape:deskcolor="#d1d1d1"
     inkscape:document-units="mm"
     showgrid="false"
     inkscape:zoom="1"
     inkscape:cx="355.5"
     inkscape:cy="112"
     inkscape:window-width="1560"
     inkscape:window-height="874"
     inkscape:window-x="40"
     inkscape:window-y="26"
     inkscape:window-maximized="1"
     inkscape:current-layer="layer1" />
  <defs
     id="defs2303">
    <inkscape:path-effect
       effect="powerclip"
       id="path-effect4659"
       is_visible="true"
       lpeversion="1"
       inverse="true"
       flatten="false"
       hide_clip="false"
       message="Use fill-rule evenodd on &lt;b&gt;fill and stroke&lt;/b&gt; dialog if no flatten result after convert clip to paths." />
    <inkscape:path-effect
       effect="powerclip"
       id="path-effect3619"
       is_visible="true"
       lpeversion="1"
       inverse="true"
       flatten="false"
       hide_clip="false"
       message="Use fill-rule evenodd on &lt;b&gt;fill and stroke&lt;/b&gt; dialog if no flatten result after convert clip to paths." />
    <inkscape:path-effect
       effect="powermask"
       id="path-effect3593"
       is_visible="true"
       lpeversion="1"
       uri="#mask-powermask-path-effect3593"
       invert="false"
       hide_mask="false"
       background="true"
       background_color="#ffffffff" />
    <mask
       maskUnits="userSpaceOnUse"
       id="mask-powermask-path-effect3593">
      <path
         style="fill:none;stroke:#000000;stroke-width:3.99632;stroke-linecap:round;stroke-linejoin:round;stroke-dasharray:none;stroke-opacity:1;paint-order:markers fill stroke"
         d="m 16.346321,41.835501 c 0,0 5.95671,4.413274 15.653678,4.29437 8.569183,-0.105071 14.524467,-4.29437 14.524467,-4.29437 v 0"
         id="path3591"
         sodipodi:nodetypes="cscc" />
    </mask>
    <clipPath
       clipPathUnits="userSpaceOnUse"
       id="clipPath3611">
      <g
         id="g3617"
         style="display:block">
        <rect
           style="fill:#000000;fill-opacity:1;stroke:none;stroke-width:3.72991;stroke-linecap:round;stroke-linejoin:round;stroke-dasharray:none;paint-order:markers fill stroke"
           id="rect3613"
           width="12.190478"
           height="12.190478"
           x="10.713497"
           y="19.948053"
           ry="3.9963269"
           rx="3.9963269" />
        <rect
           style="fill:#000000;fill-opacity:1;stroke:none;stroke-width:3.72991;stroke-linecap:round;stroke-linejoin:round;stroke-dasharray:none;paint-order:markers fill stroke"
           id="rect3615"
           width="12.190478"
           height="12.190478"
           x="39.672951"
           y="19.948053"
           ry="3.9963269"
           rx="3.9963269" />
      </g>
    </clipPath>
    <clipPath
       clipPathUnits="userSpaceOnUse"
       id="clipPath4651">
      <path
         id="lpe_path-effect4659"
         class="powerclip"
         d="M -5,-5 H 68.999998 V 68.999998 H -5 Z m 21.430672,36.999999 h 19.238444 l -21.849686,-5.085593 2.611242,5.085593 m 0,0 -2.611242,5.085593 21.849686,-5.085593 H 16.430672" />
    </clipPath>
  </defs>
  <g
     inkscape:label="Vrstva 1"
     inkscape:groupmode="layer"
     id="layer1">
    <path
       id="path4530"
       clip-path="url(#clipPath4651)"
       style="fill:#ffffff;fill-opacity:1;stroke:none;stroke-width:6;stroke-linecap:round;stroke-linejoin:round;stroke-dasharray:none;stroke-opacity:1;paint-order:markers fill stroke"
       d="m 0,0 13.819828,26.915153 5.17e-4,5.17e-4 c 0.0033,0.0023 0.0067,0.0047 0.0098,0.0072 0.004,0.0033 0.0083,0.0065 0.0124,0.0098 0.0021,0.0016 0.0042,0.0035 0.0062,0.0052 v 5.16e-4 c 0.0018,-7.83e-4 0.0038,-0.0012 0.0057,-0.0016 0.01618,-0.003 0.03303,0.0113 0.03101,0.04289 -1.93e-4,0.0032 0.0012,0.0062 0.0016,0.0093 0.0039,-7.7e-4 0.0078,-0.0014 0.01188,-0.0015 0.04012,-0.0014 0.08734,0.0289 0.117822,0.100252 0.0026,0.0062 0.0053,0.01207 0.0093,0.01757 0.0046,0.006 0.0101,0.01239 0.0155,0.01809 0.01552,0.01573 0.03095,0.03148 0.04496,0.04858 0.0028,0.0037 0.0056,0.0075 0.0083,0.01137 0.01152,-8.76e-4 0.02305,-0.0016 0.03462,-0.0016 0.01622,5.8e-5 0.03236,1.79e-4 0.04858,5.17e-4 0.01821,5e-4 0.03661,0.0012 0.05478,0.0026 0.01357,0.0013 0.02722,0.0026 0.03979,0.0083 0.0065,0.003 0.013,0.0064 0.0186,0.01085 0.0052,0.0041 0.0092,0.0087 0.01137,0.01499 0.0026,0.007 0.0037,0.01421 0.0031,0.02171 -3e-4,0.0059 -0.0011,0.01197 -0.0031,0.01757 -0.0018,0.0046 -0.0042,0.009 -0.0062,0.01343 -0.0039,0.0086 -0.0075,0.01701 -0.01292,0.02481 -0.0069,0.0094 -0.01532,0.01767 -0.02532,0.02377 -0.01,0.0063 -0.01989,0.01244 -0.03101,0.01654 -0.009,0.0035 -0.01842,0.0065 -0.02791,0.0088 10e-4,0.0021 0.0021,0.0041 0.0031,0.0062 l 5.17e-4,5.17e-4 c 0.003,0.005 0.0064,0.0099 0.0093,0.01499 0.005,0.009 0.0068,0.01429 0.01085,0.02429 0.0039,0.01434 0.01309,0.02538 0.02119,0.03772 0.01915,0.02862 0.03534,0.05939 0.05013,0.09043 0.01856,0.04178 0.03687,0.0835 0.05478,0.125574 0.01434,0.03644 0.0304,0.07206 0.04703,0.107487 0.0039,0.007 0.0076,0.01434 0.01085,0.0217 0.05552,-0.04901 0.110821,-0.09823 0.166398,-0.147278 0.01765,-0.01648 0.03719,-0.03348 0.05219,-0.05271 0.0022,-0.0027 0.0039,-0.0062 0.0062,-0.0088 5e-4,-5.18e-4 5.17e-4,0.0017 5.17e-4,0.001 9.8e-4,-0.0025 10e-4,-0.0061 10e-4,-0.0088 0.0044,-0.03553 0.02293,-0.0536 0.04134,-0.05581 0.02367,-0.0028 0.04734,0.02057 0.04082,0.06615 -0.0072,0.05019 -0.05119,0.08573 -0.08578,0.118339 -0.06322,0.05587 -0.12637,0.112021 -0.189653,0.167949 0.0069,0.01529 0.01401,0.03051 0.02171,0.04547 0.01227,0.02204 0.02451,0.04377 0.03514,0.06666 0.0096,0.02509 0.02235,0.04839 0.03617,0.07131 0.01777,0.02728 0.03274,0.05632 0.04754,0.08527 0.009,0.01958 0.02243,0.03683 0.03256,0.05581 0.0042,0.0079 0.0079,0.01577 0.01189,0.02377 0.01848,0.03982 0.03591,0.0803 0.05374,0.120406 0.01285,0.0282 0.02574,0.05609 0.03979,0.08372 0.01433,0.02675 0.02804,0.05437 0.04134,0.08165 0.0145,0.02801 0.02744,0.05649 0.04031,0.08527 0.01445,0.03075 0.02604,0.06246 0.04082,0.09302 0.01991,0.03925 0.04024,0.07849 0.06098,0.117306 0.01992,0.03895 0.04104,0.07743 0.06305,0.115238 0.0216,0.03666 0.04168,0.07422 0.05994,0.112655 0.01588,0.03425 0.02923,0.06926 0.04548,0.103352 0.01709,0.03236 0.03455,0.06425 0.05064,0.09715 0.02082,0.04636 0.04223,0.09264 0.06305,0.13901 0.01969,0.04431 0.03965,0.08875 0.06098,0.132291 0.015,0.02981 0.03011,0.05977 0.04444,0.08992 0.01185,0.02441 0.022,0.04911 0.03411,0.07338 0.01274,0.02261 0.02398,0.04715 0.03927,0.06821 0.0084,0.01126 0.01941,0.01857 0.02997,0.02791 0.01274,0.01182 0.02239,0.02645 0.03359,0.03979 0.01726,-0.01986 0.03876,-0.02997 0.06046,-0.02997 0.04756,1e-6 0.09555,0.04766 0.09715,0.143143 2e-4,0.01336 0.0037,0.02669 0.0062,0.03979 0.0051,0.02419 0.01075,0.04789 0.01705,0.07183 8e-4,0.0028 0.0018,0.006 0.0026,0.0088 0.002,0.007 0.0028,0.01511 0.0062,0.02171 2.2e-4,4e-4 1.12e-4,-0.0011 0,-0.0016 0.0059,0.01187 0.01155,0.02358 0.01705,0.03566 0.0068,0.01844 0.01365,0.03725 0.02015,0.05581 0.005,0.01461 0.0087,0.02923 0.01344,0.04393 0.0031,0.0087 0.0101,0.02113 0.0155,0.03256 0.0085,0.019 0.01837,0.03726 0.02687,0.05633 0.0088,0.02155 0.01667,0.04344 0.02377,0.06563 3.13e-4,0.0014 8.08e-4,0.0043 0.0015,0.0067 0.02549,0.02647 0.0457,0.05834 0.06511,0.0894 0.01596,0.02782 0.03206,0.05519 0.04858,0.08268 0.02098,0.03345 0.03897,0.06902 0.06098,0.101802 0.0033,0.0046 0.0064,0.0089 0.0098,0.01344 0.0072,0.0093 0.0088,0.0094 0.01654,0.0186 0.01262,0.01514 0.02346,0.03158 0.03566,0.04703 0.03029,0.03755 0.05908,0.07644 0.0863,0.116272 0.02006,0.02963 0.0394,0.05949 0.05736,0.09043 0.01554,0.02522 0.02591,0.05282 0.03411,0.08113 0.0049,0.01841 0.0084,0.0376 0.01395,0.05581 0.0052,0.0153 0.0092,0.03068 0.0124,0.04651 0.0098,0.04543 -0.0094,0.08952 -0.04341,0.112138 0.01566,0.02478 0.0301,0.05038 0.04444,0.07596 0.02219,0.04078 0.04404,0.08188 0.06563,0.12299 0.01957,0.03797 0.03916,0.07581 0.05788,0.114205 0.01524,0.02978 0.02592,0.06137 0.03927,0.09198 0.0088,0.01942 0.01775,0.0389 0.02635,0.0584 0.0063,0.01419 0.0025,0.01039 0.0078,0.01499 0.01999,0.02894 0.03749,0.05925 0.05374,0.09043 0.008,0.01584 0.01293,0.03299 0.01912,0.04961 0.01588,-0.01241 0.03334,-0.01861 0.05013,-0.01912 0.05442,-0.0017 0.10336,0.05694 0.08216,0.162264 -0.0073,0.03631 -0.02221,0.07033 -0.03876,0.103352 0.0047,0.01256 0.009,0.02529 0.01395,0.03772 0.0055,0.01434 0.01194,0.02862 0.01964,0.04186 0.08819,0.150772 -0.04527,0.241765 -0.141077,0.129708 -0.01166,0.02142 -0.02328,0.04276 -0.03514,0.06408 -0.01134,0.01812 -0.02187,0.03766 -0.03617,0.05374 -0.0061,0.0068 -0.01282,0.01304 -0.01912,0.01964 -0.01768,0.01579 -0.03641,0.0303 -0.05323,0.04703 0.0031,-0.0028 -0.0016,0.0028 -0.0062,0.0078 -2.57e-4,6.71e-4 -8.93e-4,0.0021 -0.001,0.0026 -0.0012,0.0034 -0.0028,0.0069 -0.0041,0.01034 -0.0084,0.02222 -0.0147,0.04501 -0.0217,0.0677 -0.0082,0.0243 -0.01554,0.04878 -0.02274,0.07338 -0.0047,0.01838 -0.01114,0.03612 -0.01654,0.05426 -0.0072,0.02654 -0.02296,0.04962 -0.03772,0.07235 -0.0081,0.01338 -0.01832,0.02525 -0.02532,0.03927 -0.0073,0.0132 -0.01184,0.02762 -0.01654,0.04186 -0.004,0.01255 -0.0087,0.02466 -0.01395,0.03669 -0.0036,0.0081 -0.0025,0.0045 -0.0036,0.0088 -0.005,0.01219 -0.0084,0.02484 -0.01085,0.03772 -0.0048,0.02615 -0.01385,0.05116 -0.02325,0.07596 -0.0096,0.02314 -0.01777,0.04694 -0.02687,0.07028 -0.01345,0.03279 -0.02677,0.06586 -0.04134,0.09819 -0.01125,0.02445 -0.02374,0.04801 -0.03721,0.07131 -0.01475,0.0237 -0.03122,0.04674 -0.04702,0.06976 -0.0031,0.0043 -0.0057,0.0086 -0.0088,0.01292 -0.02346,0.03178 -0.0041,0.0046 -0.02584,0.03256 -0.01339,0.01719 -0.02557,0.03499 -0.03824,0.05271 -0.03075,0.0427 -0.05713,0.0887 -0.0832,0.134359 -0.0248,0.04531 -0.05081,0.09026 -0.07855,0.133841 -0.02358,0.03417 -0.0442,0.07023 -0.06615,0.10542 -0.01914,0.03016 -0.03987,0.05884 -0.05994,0.08837 -0.02076,0.03037 -0.0406,0.06142 -0.05943,0.09302 -0.0077,0.01486 -0.01784,0.0285 -0.02636,0.04289 -0.007,0.01184 -0.01229,0.02478 -0.01809,0.03721 -0.01434,0.03133 -0.02813,0.06305 -0.04083,0.09508 -0.0119,0.03004 -0.02059,0.06108 -0.03152,0.09147 -0.01592,0.04336 -0.03954,0.08327 -0.06098,0.124023 -0.02312,0.04747 -0.05148,0.09218 -0.0801,0.136426 -0.0061,0.0105 -0.01372,0.02002 -0.02067,0.02997 0.05782,9.4e-4 0.104295,0.06824 0.06666,0.174149 -0.01329,0.03738 -0.02547,0.07512 -0.03979,0.112138 -0.01546,0.03747 -0.02891,0.07563 -0.04547,0.112655 -0.01415,0.02986 -0.02871,0.05982 -0.04444,0.08888 -0.01648,0.03088 -0.03833,0.05818 -0.0615,0.08423 -0.02101,0.02362 -0.04447,0.04443 -0.06873,0.0646 -0.01523,0.01216 -0.02982,0.02544 -0.04496,0.03772 -0.01489,0.01153 -0.06003,0.03569 -0.07906,0.02481 -0.0083,-0.0048 -0.01602,-0.01031 -0.02377,-0.01602 -0.0015,0.0047 -0.0028,0.0097 -0.0041,0.01447 -0.0037,0.01523 -0.0067,0.03039 -0.01085,0.04548 -0.0069,0.01951 -0.01544,0.03808 -0.01964,0.05839 -0.0051,0.02333 -0.0077,0.04709 -0.0155,0.06976 -0.0025,0.0073 -0.006,0.0145 -0.0088,0.0217 -1.3e-4,0.008 -0.01825,0.03004 -0.01809,0.03824 0,8e-4 6.26e-4,-0.0014 0.001,-0.0021 -0.003,0.01978 -0.007,0.03914 -0.0124,0.05839 -0.0065,0.02269 -0.01862,0.0433 -0.02842,0.0646 -0.01242,0.02689 -0.02668,0.05306 -0.04082,0.07906 -0.01576,0.02822 -0.02997,0.0569 -0.04444,0.08578 -0.01488,0.03004 -0.02959,0.06044 -0.04651,0.0894 -0.01301,0.02086 -0.02609,0.04166 -0.03824,0.06304 -0.0115,0.02101 -0.02288,0.04165 -0.03462,0.06253 -0.0044,0.0084 -0.0097,0.0166 -0.01447,0.0248 -2.27e-4,3.03e-4 -0.0016,0.0034 -0.0026,0.0052 -0.0068,0.01593 -0.01325,0.03214 -0.02015,0.04806 -0.0107,0.02352 -0.01904,0.04795 -0.02894,0.07183 -0.0061,0.01694 -0.01577,0.03203 -0.02377,0.04806 -0.0053,0.01065 -0.0091,0.02252 -0.01344,0.03359 -0.01232,0.03449 -0.02727,0.06817 -0.04392,0.100769 -0.01112,0.0197 -0.02241,0.03898 -0.03307,0.05891 -0.0094,0.01833 -0.02195,0.03492 -0.03307,0.05219 -0.0088,0.01579 -0.02089,0.0297 -0.03049,0.04496 -10e-4,0.0016 -0.0022,0.003 -0.0031,0.0047 -0.0012,0.0024 -0.0015,0.0053 -0.0026,0.0078 -1.4e-4,3e-4 -0.0099,0.02193 -0.01033,0.02274 -0.0041,0.0075 -0.0086,0.01492 -0.01292,0.02222 -0.01728,0.02505 -0.03556,0.04926 -0.05478,0.07286 -0.01392,0.01651 -0.02727,0.03343 -0.04031,0.05064 -0.01148,0.014 -0.02037,0.02972 -0.02997,0.04496 -0.01408,0.02358 -0.03213,0.04352 -0.05323,0.06098 -0.01068,0.009 -0.02365,0.01442 -0.03617,0.02015 0.0011,-5.14e-4 0.0026,-8.51e-4 0.0036,-10e-4 h 5.17e-4 c 9.88e-4,-5.56e-4 -3.96e-4,5.6e-5 0.0015,-0.001 -0.0044,0.0061 -0.0097,0.01189 -0.01395,0.01809 -0.0055,0.0085 -0.01132,0.01684 -0.01602,0.02584 -0.01,0.01884 -0.02115,0.03678 -0.03256,0.05478 -0.0098,0.01601 -0.02097,0.03108 -0.02997,0.04754 -0.007,0.01533 -0.01434,0.03075 -0.02274,0.04548 -0.0056,0.01017 -0.01304,0.01902 -0.01964,0.02842 -0.0024,0.0035 -0.0067,0.01187 -0.0083,0.01447 -0.007,0.01002 -0.01239,0.02127 -0.01809,0.03204 -0.0074,0.01291 -0.01589,0.02492 -0.02429,0.03721 -0.0011,0.0016 -0.0025,0.0031 -0.0036,0.0047 -0.02868,0.04119 -0.06071,0.06408 -0.09043,0.07235 L 0,64.000228 64.000228,32.000114 Z m 14.12937,27.202474 c -0.0069,-4.8e-5 -0.01379,8.52e-4 -0.02067,0.001 0.0035,0.0052 0.0068,0.01043 0.01033,0.0155 0.01345,0.0183 0.02729,0.03597 0.03927,0.05529 0.007,0.01474 0.01529,0.02829 0.02429,0.04186 0.0024,0.0034 0.0046,0.0072 0.0067,0.01085 6.88e-4,-1.57e-4 0.0014,-3.59e-4 0.0021,-5.17e-4 0.0098,-0.002 0.01912,-0.0052 0.02842,-0.0088 0.0099,-0.0036 0.0191,-0.0094 0.02791,-0.01499 0.0076,-0.0047 0.01402,-0.01069 0.01912,-0.01809 0.0045,-0.0068 0.0076,-0.0144 0.01085,-0.0217 0.0015,-0.0042 0.0049,-0.0077 0.0062,-0.01188 0.0011,-0.0036 0.001,-0.0072 0.001,-0.01085 4e-4,-0.0046 5e-4,-0.0091 -0.0016,-0.01344 -0.0012,-0.0033 -0.0026,-0.0042 -0.0052,-0.0062 -0.0043,-0.0033 -0.009,-0.0067 -0.01395,-0.0088 -0.01051,-0.0047 -0.02228,-0.0057 -0.03359,-0.0067 -0.0177,-0.0014 -0.03549,-0.0017 -0.05323,-0.0021 -0.01608,-3.34e-4 -0.03197,-4.6e-4 -0.04806,-5.17e-4 z"
       transform="matrix(0.75195401,0,0,0.75195401,7.9375,7.9375)" />
  </g>
</svg>
