<?xml version="1.0" encoding="UTF-8" standalone="no"?>
<!-- Created with Inkscape (http://www.inkscape.org/) -->

<svg
   width="64"
   height="64"
   viewBox="0 0 16.933333 16.933334"
   version="1.1"
   id="svg10038"
   inkscape:version="1.2.1 (9c6d41e410, 2022-07-14)"
   sodipodi:docname="none.svg"
   xmlns:inkscape="http://www.inkscape.org/namespaces/inkscape"
   xmlns:sodipodi="http://sodipodi.sourceforge.net/DTD/sodipodi-0.dtd"
   xmlns:xlink="http://www.w3.org/1999/xlink"
   xmlns="http://www.w3.org/2000/svg"
   xmlns:svg="http://www.w3.org/2000/svg">
  <sodipodi:namedview
     id="namedview10040"
     pagecolor="#ffffff"
     bordercolor="#666666"
     borderopacity="1.0"
     inkscape:pageshadow="2"
     inkscape:pageopacity="0.0"
     inkscape:pagecheckerboard="0"
     inkscape:document-units="mm"
     showgrid="false"
     units="px"
     inkscape:zoom="2.2449495"
     inkscape:cx="-81.961755"
     inkscape:cy="69.489314"
     inkscape:window-width="1560"
     inkscape:window-height="874"
     inkscape:window-x="40"
     inkscape:window-y="26"
     inkscape:window-maximized="1"
     inkscape:current-layer="layer1"
     inkscape:snap-bbox="true"
     inkscape:bbox-paths="true"
     inkscape:bbox-nodes="true"
     inkscape:snap-bbox-edge-midpoints="true"
     inkscape:snap-bbox-midpoints="true"
     inkscape:snap-object-midpoints="true"
     inkscape:snap-center="true"
     inkscape:snap-midpoints="true"
     inkscape:snap-smooth-nodes="true"
     inkscape:object-paths="true"
     inkscape:object-nodes="true"
     inkscape:snap-intersection-paths="true"
     inkscape:showpageshadow="2"
     inkscape:deskcolor="#d1d1d1" />
  <defs
     id="defs10035">
    <inkscape:path-effect
       effect="powerclip"
       id="path-effect6138"
       is_visible="true"
       lpeversion="1"
       inverse="true"
       flatten="false"
       hide_clip="false"
       message="Use fill-rule evenodd on &lt;b&gt;fill and stroke&lt;/b&gt; dialog if no flatten result after convert clip to paths." />
    <linearGradient
       id="linearGradient3891">
      <stop
         style="stop-color:#000000;stop-opacity:1;"
         offset="0"
         id="stop3887" />
      <stop
         style="stop-color:#999999;stop-opacity:1"
         offset="1"
         id="stop3889" />
    </linearGradient>
    <linearGradient
       xlink:href="#linearGradient3891"
       id="linearGradient3893"
       x1="2.6662083"
       y1="8.4666667"
       x2="14.267125"
       y2="8.4666667"
       gradientUnits="userSpaceOnUse" />
    <pattern
       patternUnits="userSpaceOnUse"
       width="3.3947534"
       height="2.9445974"
       patternTransform="translate(34.843296,28.706916)"
       id="pattern5090">
      <path
         style="display:inline;fill:#ff0000;fill-opacity:1;stroke:none;stroke-width:1.64662px;stroke-linecap:butt;stroke-linejoin:miter;stroke-opacity:1"
         d="M 0,2.3590412 C 0,1.0783351 0,-0.20072321 0.84907641,0.02636285 1.6981528,0.25344891 3.3946092,1.9882403 3.3947534,2.6280176 3.3948976,3.2677949 1.6964908,2.8131616 0,2.3590412 Z"
         id="path4483" />
    </pattern>
    <pattern
       patternUnits="userSpaceOnUse"
       width="3.3947534"
       height="2.9445974"
       patternTransform="translate(34.843296,28.706916)"
       id="pattern5090-3">
      <path
         style="display:inline;fill:#ff0000;fill-opacity:1;stroke:none;stroke-width:1.64662px;stroke-linecap:butt;stroke-linejoin:miter;stroke-opacity:1"
         d="M 0,2.3590412 C 0,1.0783351 0,-0.20072321 0.84907641,0.02636285 1.6981528,0.25344891 3.3946092,1.9882403 3.3947534,2.6280176 3.3948976,3.2677949 1.6964908,2.8131616 0,2.3590412 Z"
         id="path4483-6" />
    </pattern>
    <pattern
       patternUnits="userSpaceOnUse"
       width="3.3947534"
       height="2.9445974"
       patternTransform="translate(34.843296,28.706916)"
       id="pattern5090-5">
      <path
         style="display:inline;fill:#ff0000;fill-opacity:1;stroke:none;stroke-width:1.64662px;stroke-linecap:butt;stroke-linejoin:miter;stroke-opacity:1"
         d="M 0,2.3590412 C 0,1.0783351 0,-0.20072321 0.84907641,0.02636285 1.6981528,0.25344891 3.3946092,1.9882403 3.3947534,2.6280176 3.3948976,3.2677949 1.6964908,2.8131616 0,2.3590412 Z"
         id="path4483-62" />
    </pattern>
    <pattern
       patternUnits="userSpaceOnUse"
       width="3.3947534"
       height="2.9445974"
       patternTransform="translate(34.843296,28.706916)"
       id="pattern5090-3-2">
      <path
         style="display:inline;fill:#ff0000;fill-opacity:1;stroke:none;stroke-width:1.64662px;stroke-linecap:butt;stroke-linejoin:miter;stroke-opacity:1"
         d="M 0,2.3590412 C 0,1.0783351 0,-0.20072321 0.84907641,0.02636285 1.6981528,0.25344891 3.3946092,1.9882403 3.3947534,2.6280176 3.3948976,3.2677949 1.6964908,2.8131616 0,2.3590412 Z"
         id="path4483-6-7" />
    </pattern>
    <pattern
       patternUnits="userSpaceOnUse"
       width="3.3947534"
       height="2.9445974"
       patternTransform="translate(34.843296,28.706916)"
       id="pattern5090-6">
      <path
         style="display:inline;fill:#ff0000;fill-opacity:1;stroke:none;stroke-width:1.64662px;stroke-linecap:butt;stroke-linejoin:miter;stroke-opacity:1"
         d="M 0,2.3590412 C 0,1.0783351 0,-0.20072321 0.84907641,0.02636285 1.6981528,0.25344891 3.3946092,1.9882403 3.3947534,2.6280176 3.3948976,3.2677949 1.6964908,2.8131616 0,2.3590412 Z"
         id="path4483-2" />
    </pattern>
    <pattern
       patternUnits="userSpaceOnUse"
       width="3.3947534"
       height="2.9445974"
       patternTransform="translate(34.843296,28.706916)"
       id="pattern5090-7">
      <path
         style="display:inline;fill:#ff0000;fill-opacity:1;stroke:none;stroke-width:1.64662px;stroke-linecap:butt;stroke-linejoin:miter;stroke-opacity:1"
         d="M 0,2.3590412 C 0,1.0783351 0,-0.20072321 0.84907641,0.02636285 1.6981528,0.25344891 3.3946092,1.9882403 3.3947534,2.6280176 3.3948976,3.2677949 1.6964908,2.8131616 0,2.3590412 Z"
         id="path4483-9" />
    </pattern>
    <pattern
       patternUnits="userSpaceOnUse"
       width="3.3947534"
       height="2.9445974"
       patternTransform="translate(34.843296,28.706916)"
       id="pattern5090-6-2">
      <path
         style="display:inline;fill:#ff0000;fill-opacity:1;stroke:none;stroke-width:1.64662px;stroke-linecap:butt;stroke-linejoin:miter;stroke-opacity:1"
         d="M 0,2.3590412 C 0,1.0783351 0,-0.20072321 0.84907641,0.02636285 1.6981528,0.25344891 3.3946092,1.9882403 3.3947534,2.6280176 3.3948976,3.2677949 1.6964908,2.8131616 0,2.3590412 Z"
         id="path4483-2-3" />
    </pattern>
    <pattern
       patternUnits="userSpaceOnUse"
       width="3.3947534"
       height="2.9445974"
       patternTransform="translate(34.843296,28.706916)"
       id="pattern5090-7-8">
      <path
         style="display:inline;fill:#ff0000;fill-opacity:1;stroke:none;stroke-width:1.64662px;stroke-linecap:butt;stroke-linejoin:miter;stroke-opacity:1"
         d="M 0,2.3590412 C 0,1.0783351 0,-0.20072321 0.84907641,0.02636285 1.6981528,0.25344891 3.3946092,1.9882403 3.3947534,2.6280176 3.3948976,3.2677949 1.6964908,2.8131616 0,2.3590412 Z"
         id="path4483-9-9" />
    </pattern>
    <pattern
       patternUnits="userSpaceOnUse"
       width="3.3947534"
       height="2.9445974"
       patternTransform="translate(34.843296,28.706916)"
       id="pattern5090-6-2-6">
      <path
         style="display:inline;fill:#ff0000;fill-opacity:1;stroke:none;stroke-width:1.64662px;stroke-linecap:butt;stroke-linejoin:miter;stroke-opacity:1"
         d="M 0,2.3590412 C 0,1.0783351 0,-0.20072321 0.84907641,0.02636285 1.6981528,0.25344891 3.3946092,1.9882403 3.3947534,2.6280176 3.3948976,3.2677949 1.6964908,2.8131616 0,2.3590412 Z"
         id="path4483-2-3-1" />
    </pattern>
    <pattern
       patternUnits="userSpaceOnUse"
       width="3.3947534"
       height="2.9445974"
       patternTransform="translate(34.843296,28.706916)"
       id="pattern5090-7-8-4">
      <path
         style="display:inline;fill:#ff0000;fill-opacity:1;stroke:none;stroke-width:1.64662px;stroke-linecap:butt;stroke-linejoin:miter;stroke-opacity:1"
         d="M 0,2.3590412 C 0,1.0783351 0,-0.20072321 0.84907641,0.02636285 1.6981528,0.25344891 3.3946092,1.9882403 3.3947534,2.6280176 3.3948976,3.2677949 1.6964908,2.8131616 0,2.3590412 Z"
         id="path4483-9-9-7" />
    </pattern>
    <pattern
       patternUnits="userSpaceOnUse"
       width="3.3947534"
       height="2.9445974"
       patternTransform="translate(34.843296,28.706916)"
       id="pattern5090-6-2-6-5">
      <path
         style="display:inline;fill:#ff0000;fill-opacity:1;stroke:none;stroke-width:1.64662px;stroke-linecap:butt;stroke-linejoin:miter;stroke-opacity:1"
         d="M 0,2.3590412 C 0,1.0783351 0,-0.20072321 0.84907641,0.02636285 1.6981528,0.25344891 3.3946092,1.9882403 3.3947534,2.6280176 3.3948976,3.2677949 1.6964908,2.8131616 0,2.3590412 Z"
         id="path4483-2-3-1-0" />
    </pattern>
    <pattern
       patternUnits="userSpaceOnUse"
       width="3.3947534"
       height="2.9445974"
       patternTransform="translate(34.843296,28.706916)"
       id="pattern5090-7-8-3">
      <path
         style="display:inline;fill:#ff0000;fill-opacity:1;stroke:none;stroke-width:1.64662px;stroke-linecap:butt;stroke-linejoin:miter;stroke-opacity:1"
         d="M 0,2.3590412 C 0,1.0783351 0,-0.20072321 0.84907641,0.02636285 1.6981528,0.25344891 3.3946092,1.9882403 3.3947534,2.6280176 3.3948976,3.2677949 1.6964908,2.8131616 0,2.3590412 Z"
         id="path4483-9-9-2" />
    </pattern>
    <pattern
       patternUnits="userSpaceOnUse"
       width="3.3947534"
       height="2.9445974"
       patternTransform="translate(34.843296,28.706916)"
       id="pattern5090-6-2-6-1">
      <path
         style="display:inline;fill:#ff0000;fill-opacity:1;stroke:none;stroke-width:1.64662px;stroke-linecap:butt;stroke-linejoin:miter;stroke-opacity:1"
         d="M 0,2.3590412 C 0,1.0783351 0,-0.20072321 0.84907641,0.02636285 1.6981528,0.25344891 3.3946092,1.9882403 3.3947534,2.6280176 3.3948976,3.2677949 1.6964908,2.8131616 0,2.3590412 Z"
         id="path4483-2-3-1-5" />
    </pattern>
    <pattern
       patternUnits="userSpaceOnUse"
       width="3.3947534"
       height="2.9445974"
       patternTransform="translate(34.843296,28.706916)"
       id="pattern5090-7-8-6">
      <path
         style="display:inline;fill:#ff0000;fill-opacity:1;stroke:none;stroke-width:1.64662px;stroke-linecap:butt;stroke-linejoin:miter;stroke-opacity:1"
         d="M 0,2.3590412 C 0,1.0783351 0,-0.20072321 0.84907641,0.02636285 1.6981528,0.25344891 3.3946092,1.9882403 3.3947534,2.6280176 3.3948976,3.2677949 1.6964908,2.8131616 0,2.3590412 Z"
         id="path4483-9-9-9" />
    </pattern>
    <pattern
       patternUnits="userSpaceOnUse"
       width="3.3947534"
       height="2.9445974"
       patternTransform="translate(34.843296,28.706916)"
       id="pattern5090-6-2-6-4">
      <path
         style="display:inline;fill:#ff0000;fill-opacity:1;stroke:none;stroke-width:1.64662px;stroke-linecap:butt;stroke-linejoin:miter;stroke-opacity:1"
         d="M 0,2.3590412 C 0,1.0783351 0,-0.20072321 0.84907641,0.02636285 1.6981528,0.25344891 3.3946092,1.9882403 3.3947534,2.6280176 3.3948976,3.2677949 1.6964908,2.8131616 0,2.3590412 Z"
         id="path4483-2-3-1-52" />
    </pattern>
    <clipPath
       clipPathUnits="userSpaceOnUse"
       id="clipPath6134">
      <circle
         style="display:none;fill:#000000;fill-opacity:1;stroke:none;stroke-width:2.78315;stroke-linecap:round"
         id="circle6136"
         cx="8.4666662"
         cy="8.4666662"
         r="5.7940483"
         d="M 14.260715,8.4666662 A 5.7940483,5.7940483 0 0 1 8.4666662,14.260715 5.7940483,5.7940483 0 0 1 2.6726179,8.4666662 5.7940483,5.7940483 0 0 1 8.4666662,2.6726179 5.7940483,5.7940483 0 0 1 14.260715,8.4666662 Z" />
      <path
         id="lpe_path-effect6138"
         style="fill:#000000;fill-opacity:1;stroke:none;stroke-width:2.78315;stroke-linecap:round"
         class="powerclip"
         d="M -3.850893,-3.850893 H 20.784225 V 20.784225 H -3.850893 Z M 14.260715,8.4666662 A 5.7940483,5.7940483 0 0 0 8.4666662,2.6726179 5.7940483,5.7940483 0 0 0 2.6726179,8.4666662 5.7940483,5.7940483 0 0 0 8.4666662,14.260715 5.7940483,5.7940483 0 0 0 14.260715,8.4666662 Z" />
    </clipPath>
  </defs>
  <g
     inkscape:label="Vrstva 1"
     inkscape:groupmode="layer"
     id="layer1">
    <path
       style="fill:#f14a4a;fill-opacity:1;stroke:none;stroke-width:2.40542;stroke-linecap:round"
       id="path5402"
       clip-path="url(#clipPath6134)"
       inkscape:path-effect="#path-effect6138"
       sodipodi:type="arc"
       sodipodi:cx="8.4666662"
       sodipodi:cy="8.4666662"
       sodipodi:rx="7.3175592"
       sodipodi:ry="7.3175592"
       d="M 15.784225,8.4666662 A 7.3175592,7.3175592 0 0 1 8.4666662,15.784225 7.3175592,7.3175592 0 0 1 1.149107,8.4666662 7.3175592,7.3175592 0 0 1 8.4666662,1.149107 7.3175592,7.3175592 0 0 1 15.784225,8.4666662 Z" />
    <rect
       style="fill:#f14a4a;fill-opacity:1;stroke:none;stroke-width:2.44317;stroke-linecap:round"
       id="rect6142"
       width="13.412725"
       height="1.5527899"
       x="-6.7063632"
       y="11.19728"
       transform="rotate(-45)" />
  </g>
</svg>
