<?xml version="1.0" encoding="UTF-8" standalone="no"?>
<!-- Created with Inkscape (http://www.inkscape.org/) -->

<svg
   width="64"
   height="64"
   viewBox="0 0 16.933333 16.933333"
   version="1.1"
   id="svg5"
   sodipodi:docname="stripes.svg"
   inkscape:version="1.1.2 (0a00cf5339, 2022-02-04)"
   xmlns:inkscape="http://www.inkscape.org/namespaces/inkscape"
   xmlns:sodipodi="http://sodipodi.sourceforge.net/DTD/sodipodi-0.dtd"
   xmlns:xlink="http://www.w3.org/1999/xlink"
   xmlns="http://www.w3.org/2000/svg"
   xmlns:svg="http://www.w3.org/2000/svg">
  <sodipodi:namedview
     id="namedview7"
     pagecolor="#ffffff"
     bordercolor="#666666"
     borderopacity="1.0"
     inkscape:pageshadow="2"
     inkscape:pageopacity="0.0"
     inkscape:pagecheckerboard="0"
     inkscape:document-units="mm"
     showgrid="false"
     width="64px"
     units="px"
     inkscape:zoom="2.2449495"
     inkscape:cx="-42.539932"
     inkscape:cy="-9.799775"
     inkscape:window-width="1558"
     inkscape:window-height="874"
     inkscape:window-x="42"
     inkscape:window-y="26"
     inkscape:window-maximized="1"
     inkscape:current-layer="layer1"
     inkscape:snap-bbox="false"
     inkscape:snap-nodes="true"
     inkscape:snap-others="true"
     inkscape:bbox-paths="true"
     inkscape:bbox-nodes="false"
     inkscape:snap-bbox-edge-midpoints="false"
     inkscape:snap-bbox-midpoints="true"
     inkscape:snap-object-midpoints="true"
     inkscape:snap-center="true"
     inkscape:snap-smooth-nodes="true"
     inkscape:snap-midpoints="true"
     inkscape:snap-intersection-paths="true"
     inkscape:object-paths="false"
     inkscape:snap-global="true"
     inkscape:object-nodes="true" />
  <defs
     id="defs2">
    <inkscape:path-effect
       effect="powermask"
       id="path-effect11533"
       is_visible="true"
       lpeversion="1"
       uri="#mask-powermask-path-effect11533"
       invert="false"
       hide_mask="false"
       background="true"
       background_color="#ffffffff" />
    <linearGradient
       id="linearGradient3891">
      <stop
         style="stop-color:#000000;stop-opacity:1;"
         offset="0"
         id="stop3887" />
      <stop
         style="stop-color:#999999;stop-opacity:1"
         offset="1"
         id="stop3889" />
    </linearGradient>
    <linearGradient
       xlink:href="#linearGradient3891"
       id="linearGradient3893"
       x1="2.6662083"
       y1="8.4666667"
       x2="14.267125"
       y2="8.4666667"
       gradientUnits="userSpaceOnUse" />
    <pattern
       patternUnits="userSpaceOnUse"
       width="3.3947534"
       height="2.9445974"
       patternTransform="translate(34.843296,28.706916)"
       id="pattern5090">
      <path
         style="display:inline;fill:#ff0000;fill-opacity:1;stroke:none;stroke-width:1.64662px;stroke-linecap:butt;stroke-linejoin:miter;stroke-opacity:1"
         d="M 0,2.3590412 C 0,1.0783351 0,-0.20072321 0.84907641,0.02636285 1.6981528,0.25344891 3.3946092,1.9882403 3.3947534,2.6280176 3.3948976,3.2677949 1.6964908,2.8131616 0,2.3590412 Z"
         id="path4483" />
    </pattern>
    <pattern
       patternUnits="userSpaceOnUse"
       width="3.3947534"
       height="2.9445974"
       patternTransform="translate(34.843296,28.706916)"
       id="pattern5090-3">
      <path
         style="display:inline;fill:#ff0000;fill-opacity:1;stroke:none;stroke-width:1.64662px;stroke-linecap:butt;stroke-linejoin:miter;stroke-opacity:1"
         d="M 0,2.3590412 C 0,1.0783351 0,-0.20072321 0.84907641,0.02636285 1.6981528,0.25344891 3.3946092,1.9882403 3.3947534,2.6280176 3.3948976,3.2677949 1.6964908,2.8131616 0,2.3590412 Z"
         id="path4483-6" />
    </pattern>
    <pattern
       patternUnits="userSpaceOnUse"
       width="3.3947534"
       height="2.9445974"
       patternTransform="translate(34.843296,28.706916)"
       id="pattern5090-5">
      <path
         style="display:inline;fill:#ff0000;fill-opacity:1;stroke:none;stroke-width:1.64662px;stroke-linecap:butt;stroke-linejoin:miter;stroke-opacity:1"
         d="M 0,2.3590412 C 0,1.0783351 0,-0.20072321 0.84907641,0.02636285 1.6981528,0.25344891 3.3946092,1.9882403 3.3947534,2.6280176 3.3948976,3.2677949 1.6964908,2.8131616 0,2.3590412 Z"
         id="path4483-62" />
    </pattern>
    <pattern
       patternUnits="userSpaceOnUse"
       width="3.3947534"
       height="2.9445974"
       patternTransform="translate(34.843296,28.706916)"
       id="pattern5090-3-2">
      <path
         style="display:inline;fill:#ff0000;fill-opacity:1;stroke:none;stroke-width:1.64662px;stroke-linecap:butt;stroke-linejoin:miter;stroke-opacity:1"
         d="M 0,2.3590412 C 0,1.0783351 0,-0.20072321 0.84907641,0.02636285 1.6981528,0.25344891 3.3946092,1.9882403 3.3947534,2.6280176 3.3948976,3.2677949 1.6964908,2.8131616 0,2.3590412 Z"
         id="path4483-6-7" />
    </pattern>
    <pattern
       patternUnits="userSpaceOnUse"
       width="3.3947534"
       height="2.9445974"
       patternTransform="translate(34.843296,28.706916)"
       id="pattern5090-6">
      <path
         style="display:inline;fill:#ff0000;fill-opacity:1;stroke:none;stroke-width:1.64662px;stroke-linecap:butt;stroke-linejoin:miter;stroke-opacity:1"
         d="M 0,2.3590412 C 0,1.0783351 0,-0.20072321 0.84907641,0.02636285 1.6981528,0.25344891 3.3946092,1.9882403 3.3947534,2.6280176 3.3948976,3.2677949 1.6964908,2.8131616 0,2.3590412 Z"
         id="path4483-2" />
    </pattern>
    <pattern
       patternUnits="userSpaceOnUse"
       width="3.3947534"
       height="2.9445974"
       patternTransform="translate(34.843296,28.706916)"
       id="pattern5090-7">
      <path
         style="display:inline;fill:#ff0000;fill-opacity:1;stroke:none;stroke-width:1.64662px;stroke-linecap:butt;stroke-linejoin:miter;stroke-opacity:1"
         d="M 0,2.3590412 C 0,1.0783351 0,-0.20072321 0.84907641,0.02636285 1.6981528,0.25344891 3.3946092,1.9882403 3.3947534,2.6280176 3.3948976,3.2677949 1.6964908,2.8131616 0,2.3590412 Z"
         id="path4483-9" />
    </pattern>
    <pattern
       patternUnits="userSpaceOnUse"
       width="3.3947534"
       height="2.9445974"
       patternTransform="translate(34.843296,28.706916)"
       id="pattern5090-6-2">
      <path
         style="display:inline;fill:#ff0000;fill-opacity:1;stroke:none;stroke-width:1.64662px;stroke-linecap:butt;stroke-linejoin:miter;stroke-opacity:1"
         d="M 0,2.3590412 C 0,1.0783351 0,-0.20072321 0.84907641,0.02636285 1.6981528,0.25344891 3.3946092,1.9882403 3.3947534,2.6280176 3.3948976,3.2677949 1.6964908,2.8131616 0,2.3590412 Z"
         id="path4483-2-3" />
    </pattern>
    <pattern
       patternUnits="userSpaceOnUse"
       width="3.3947534"
       height="2.9445974"
       patternTransform="translate(34.843296,28.706916)"
       id="pattern5090-7-8">
      <path
         style="display:inline;fill:#ff0000;fill-opacity:1;stroke:none;stroke-width:1.64662px;stroke-linecap:butt;stroke-linejoin:miter;stroke-opacity:1"
         d="M 0,2.3590412 C 0,1.0783351 0,-0.20072321 0.84907641,0.02636285 1.6981528,0.25344891 3.3946092,1.9882403 3.3947534,2.6280176 3.3948976,3.2677949 1.6964908,2.8131616 0,2.3590412 Z"
         id="path4483-9-9" />
    </pattern>
    <pattern
       patternUnits="userSpaceOnUse"
       width="3.3947534"
       height="2.9445974"
       patternTransform="translate(34.843296,28.706916)"
       id="pattern5090-6-2-6">
      <path
         style="display:inline;fill:#ff0000;fill-opacity:1;stroke:none;stroke-width:1.64662px;stroke-linecap:butt;stroke-linejoin:miter;stroke-opacity:1"
         d="M 0,2.3590412 C 0,1.0783351 0,-0.20072321 0.84907641,0.02636285 1.6981528,0.25344891 3.3946092,1.9882403 3.3947534,2.6280176 3.3948976,3.2677949 1.6964908,2.8131616 0,2.3590412 Z"
         id="path4483-2-3-1" />
    </pattern>
    <pattern
       patternUnits="userSpaceOnUse"
       width="3.3947534"
       height="2.9445974"
       patternTransform="translate(34.843296,28.706916)"
       id="pattern5090-7-8-4">
      <path
         style="display:inline;fill:#ff0000;fill-opacity:1;stroke:none;stroke-width:1.64662px;stroke-linecap:butt;stroke-linejoin:miter;stroke-opacity:1"
         d="M 0,2.3590412 C 0,1.0783351 0,-0.20072321 0.84907641,0.02636285 1.6981528,0.25344891 3.3946092,1.9882403 3.3947534,2.6280176 3.3948976,3.2677949 1.6964908,2.8131616 0,2.3590412 Z"
         id="path4483-9-9-7" />
    </pattern>
    <pattern
       patternUnits="userSpaceOnUse"
       width="3.3947534"
       height="2.9445974"
       patternTransform="translate(34.843296,28.706916)"
       id="pattern5090-6-2-6-5">
      <path
         style="display:inline;fill:#ff0000;fill-opacity:1;stroke:none;stroke-width:1.64662px;stroke-linecap:butt;stroke-linejoin:miter;stroke-opacity:1"
         d="M 0,2.3590412 C 0,1.0783351 0,-0.20072321 0.84907641,0.02636285 1.6981528,0.25344891 3.3946092,1.9882403 3.3947534,2.6280176 3.3948976,3.2677949 1.6964908,2.8131616 0,2.3590412 Z"
         id="path4483-2-3-1-0" />
    </pattern>
    <pattern
       patternUnits="userSpaceOnUse"
       width="3.3947534"
       height="2.9445974"
       patternTransform="translate(34.843296,28.706916)"
       id="pattern5090-7-8-3">
      <path
         style="display:inline;fill:#ff0000;fill-opacity:1;stroke:none;stroke-width:1.64662px;stroke-linecap:butt;stroke-linejoin:miter;stroke-opacity:1"
         d="M 0,2.3590412 C 0,1.0783351 0,-0.20072321 0.84907641,0.02636285 1.6981528,0.25344891 3.3946092,1.9882403 3.3947534,2.6280176 3.3948976,3.2677949 1.6964908,2.8131616 0,2.3590412 Z"
         id="path4483-9-9-2" />
    </pattern>
    <pattern
       patternUnits="userSpaceOnUse"
       width="3.3947534"
       height="2.9445974"
       patternTransform="translate(34.843296,28.706916)"
       id="pattern5090-6-2-6-1">
      <path
         style="display:inline;fill:#ff0000;fill-opacity:1;stroke:none;stroke-width:1.64662px;stroke-linecap:butt;stroke-linejoin:miter;stroke-opacity:1"
         d="M 0,2.3590412 C 0,1.0783351 0,-0.20072321 0.84907641,0.02636285 1.6981528,0.25344891 3.3946092,1.9882403 3.3947534,2.6280176 3.3948976,3.2677949 1.6964908,2.8131616 0,2.3590412 Z"
         id="path4483-2-3-1-5" />
    </pattern>
    <pattern
       patternUnits="userSpaceOnUse"
       width="3.3947534"
       height="2.9445974"
       patternTransform="translate(34.843296,28.706916)"
       id="pattern5090-7-8-6">
      <path
         style="display:inline;fill:#ff0000;fill-opacity:1;stroke:none;stroke-width:1.64662px;stroke-linecap:butt;stroke-linejoin:miter;stroke-opacity:1"
         d="M 0,2.3590412 C 0,1.0783351 0,-0.20072321 0.84907641,0.02636285 1.6981528,0.25344891 3.3946092,1.9882403 3.3947534,2.6280176 3.3948976,3.2677949 1.6964908,2.8131616 0,2.3590412 Z"
         id="path4483-9-9-9" />
    </pattern>
    <pattern
       patternUnits="userSpaceOnUse"
       width="3.3947534"
       height="2.9445974"
       patternTransform="translate(34.843296,28.706916)"
       id="pattern5090-6-2-6-4">
      <path
         style="display:inline;fill:#ff0000;fill-opacity:1;stroke:none;stroke-width:1.64662px;stroke-linecap:butt;stroke-linejoin:miter;stroke-opacity:1"
         d="M 0,2.3590412 C 0,1.0783351 0,-0.20072321 0.84907641,0.02636285 1.6981528,0.25344891 3.3946092,1.9882403 3.3947534,2.6280176 3.3948976,3.2677949 1.6964908,2.8131616 0,2.3590412 Z"
         id="path4483-2-3-1-52" />
    </pattern>
    <mask
       maskUnits="userSpaceOnUse"
       id="mask-powermask-path-effect11533">
      <path
         id="mask-powermask-path-effect11533_box"
         style="fill:#ffffff;fill-opacity:1"
         d="M 2.316196,2.4824791 H 14.617137 V 14.450854 H 2.316196 Z" />
      <g
         id="g11531"
         style="">
        <path
           style="fill:none;stroke:#000000;stroke-width:1;stroke-linecap:butt;stroke-linejoin:miter;stroke-miterlimit:4;stroke-dasharray:none;stroke-opacity:1"
           d="M 0.35355339,15.528613 15.528613,0.35355339"
           id="path11519" />
        <path
           style="fill:none;stroke:#000000;stroke-width:1;stroke-linecap:butt;stroke-linejoin:miter;stroke-miterlimit:4;stroke-dasharray:none;stroke-opacity:1"
           d="M 0.35355349,18.528613 15.528613,3.3535534"
           id="path11521" />
        <path
           style="fill:none;stroke:#000000;stroke-width:1;stroke-linecap:butt;stroke-linejoin:miter;stroke-miterlimit:4;stroke-dasharray:none;stroke-opacity:1"
           d="M 0.35355345,21.528613 15.528613,6.3535534"
           id="path11523" />
        <path
           style="fill:none;stroke:#000000;stroke-width:1;stroke-linecap:butt;stroke-linejoin:miter;stroke-miterlimit:4;stroke-dasharray:none;stroke-opacity:1"
           d="M 0.3535534,12.528613 15.528612,-2.6464466"
           id="path11525" />
        <path
           style="fill:none;stroke:#000000;stroke-width:1;stroke-linecap:butt;stroke-linejoin:miter;stroke-miterlimit:4;stroke-dasharray:none;stroke-opacity:1"
           d="M 0.3535534,24.528613 15.528613,9.3535534"
           id="path11527" />
        <path
           style="fill:none;stroke:#000000;stroke-width:1;stroke-linecap:butt;stroke-linejoin:miter;stroke-miterlimit:4;stroke-dasharray:none;stroke-opacity:1"
           d="M 0.35355339,9.5286134 15.528613,-5.6464466"
           id="path11529" />
      </g>
    </mask>
    <filter
       id="mask-powermask-path-effect11533_inverse"
       inkscape:label="filtermask-powermask-path-effect11533"
       style="color-interpolation-filters:sRGB"
       height="100"
       width="100"
       x="-50"
       y="-50">
      <feColorMatrix
         id="mask-powermask-path-effect11533_primitive1"
         values="1"
         type="saturate"
         result="fbSourceGraphic" />
      <feColorMatrix
         id="mask-powermask-path-effect11533_primitive2"
         values="-1 0 0 0 1 0 -1 0 0 1 0 0 -1 0 1 0 0 0 1 0 "
         in="fbSourceGraphic" />
    </filter>
  </defs>
  <g
     inkscape:label="Vrstva 1"
     inkscape:groupmode="layer"
     id="layer1">
    <path
       style="fill:#000000;fill-opacity:1;fill-rule:evenodd;stroke-width:1.05833;stroke-linecap:round;stroke-linejoin:round"
       id="rect4550"
       width="10.300941"
       height="9.9683752"
       x="3.316196"
       y="3.4824791"
       ry="0.14993037"
       sodipodi:type="rect"
       mask="url(#mask-powermask-path-effect11533)"
       inkscape:path-effect="#path-effect11533"
       d="M 3.4661263,3.4824791 H 13.467207 c 0.08306,0 0.14993,0.066869 0.14993,0.1499304 v 9.6685145 c 0,0.08306 -0.06687,0.14993 -0.14993,0.14993 H 3.4661263 c -0.083061,0 -0.1499303,-0.06687 -0.1499303,-0.14993 V 3.6324095 c 0,-0.083061 0.066869,-0.1499304 0.1499303,-0.1499304 z" />
  </g>
  <g
     inkscape:groupmode="layer"
     id="layer2"
     inkscape:label="Vrstva 2" />
</svg>
